<?xml version="1.0" encoding="UTF-8"?>
<svg id="Layer_1" data-name="Layer 1" xmlns="http://www.w3.org/2000/svg" version="1.1" viewBox="0 0 485 365">
  <defs>
    <style>
      .cls-1 {
        fill: #495b86;
      }

      .cls-1, .cls-2, .cls-3 {
        fill-rule: evenodd;
        stroke-width: 0px;
      }

      .cls-2 {
        fill: #5773ff;
      }

      .cls-3 {
        fill: #008fd1;
      }
    </style>
  </defs>
  <path class="cls-3" d="M0,185.1h142.1v29.6l-57,54.1c-4.3-1.9-9.1-3-14.1-3-18.5,0-33.4,14.2-33.4,31.7s15,31.7,33.4,31.7,33.4-14.2,33.4-31.7-1.1-9.3-3.1-13.4l70.1-66.5-29.3,60.1v87.2H0v-179.9h0Z"/>
  <path class="cls-2" d="M171.4,84.6h142.1v86.5l-53.4,50.7c-.9-.4-1.7-.7-2.6-1v-57.5c13.7-4,23.6-16.1,23.6-30.3s-15-31.7-33.4-31.7-33.4,14.2-33.4,31.7.8,7.7,2.1,11.2l-45,42.7v-102.3h0ZM313.6,234.2l29.3-60.1-66.5,63.1c2,4.1,3.1,8.6,3.1,13.4,0,17.5-15,31.7-33.4,31.7s-33.4-14.2-33.4-31.7,9.1-25.4,21.9-29.8v-58.6c-1.1-.4-2.1-.9-3.1-1.5l-60,57v147.3h142.1v-130.8h0Z"/>
  <path class="cls-1" d="M342.9,0h142.1v365h-142.1v-190.9l58.3-55.4c4.3,1.9,9.1,3,14.1,3,18.5,0,33.4-14.2,33.4-31.7s-15-31.7-33.4-31.7-33.4,14.2-33.4,31.7,1.1,9.3,3.1,13.4l-42.1,40V0h0Z"/>
</svg>